<svg xmlns="http://www.w3.org/2000/svg" viewBox="0 0 479.48 197.46"><defs><style>.a{fill:#fff200;}</style></defs><title>logo</title><path class="a" d="M12,207.55,93.59,37.23S98.76,26,111.76,25.83s16.57,4.28,16.57,4.28a16.67,16.67,0,0,1,5.34,11.76c.18,7.48-1.07,117-1.07,117s2.67,11.58,13,12.11,11.84-3.17,17.1-7.3c5-3.92,115.44-131.66,115.44-131.66s4.45-6.6,15.5-6.24l11,.36s10.15-.18,15.68,6.95S486.6,200.42,486.6,200.42s4.63,7.48,2.14,11.22-6.77,10-10.15,10.51-12.83,2-18.17,0S248.05,117.58,248.05,117.58s-8.2-3.92-12.83-.71-19.42,20.84-19.42,20.84l-70.55,79.1s-4.63,6.1-12.29,6.35-23.34,0-23.34,0S96.8,222.52,92.25,215C87.34,207,90,194.9,90,194.9L91.1,184c-1.33-4.34-3.07-8.79-7.09-11.11A15.39,15.39,0,0,0,73.64,170c-8.12.63-9.83,4.15-14.09,8.91L43.89,214.32s-5.17,9-15.68,8.95-14.61-2-14.61-2-5.32-5.14-3-10.33S12,207.55,12,207.55Z" transform="translate(-10 -25.81)"/></svg>